<?xml version="1.0" standalone="no"?><!DOCTYPE svg PUBLIC "-//W3C//DTD SVG 1.1//EN" "http://www.w3.org/Graphics/SVG/1.1/DTD/svg11.dtd"><svg t="1637724415093" class="icon" viewBox="0 0 1024 1024" version="1.1" xmlns="http://www.w3.org/2000/svg" p-id="2795" data-spm-anchor-id="a313x.7781069.0.i16" xmlns:xlink="http://www.w3.org/1999/xlink" width="64" height="64"><defs><style type="text/css"></style></defs><path d="M277.33316 512.00032a127.99992 127.99992 0 1 0 127.99992 127.99992 127.99992 127.99992 0 0 0-127.99992-127.99992z m0 191.99988a63.99996 63.99996 0 1 1 63.99996-63.99996 63.99996 63.99996 0 0 1-63.99996 63.99996zM746.6662 512.00032a127.99992 127.99992 0 1 0 127.99992 127.99992 127.99992 127.99992 0 0 0-127.99992-127.99992z m0 191.99988a63.99996 63.99996 0 1 1 63.99996-63.99996 63.99996 63.99996 0 0 1-63.99996 63.99996z" p-id="2796" data-spm-anchor-id="a313x.7781069.0.i17" class="" fill="#0972E7"></path><path d="M929.706086 388.69373L904.532768 97.493912a106.6666 106.6666 0 0 0-106.6666-97.493272H225.706526a106.6666 106.6666 0 0 0-106.6666 97.493272L94.293274 388.69373A127.99992 127.99992 0 0 0 0 512.00032v255.99984a127.99992 127.99992 0 0 0 127.99992 127.99992v21.33332a106.6666 106.6666 0 0 0 213.3332 0v-21.33332h341.33312v21.33332a106.6666 106.6666 0 0 0 213.3332 0v-21.33332a127.99992 127.99992 0 0 0 127.99992-127.99992V512.00032a127.99992 127.99992 0 0 0-94.293274-123.30659zM959.9994 768.00016a63.99996 63.99996 0 0 1-63.99996 63.99996h-63.99996v85.33328a42.66664 42.66664 0 0 1-85.33328 0v-85.33328H277.33316v85.33328a42.66664 42.66664 0 0 1-85.33328 0v-85.33328H127.99992a63.99996 63.99996 0 0 1-63.99996-63.99996V512.00032a63.99996 63.99996 0 0 1 23.893318-49.706636 63.99996 63.99996 0 0 1 8.106662-5.33333l2.773332-1.493332 5.973329-2.773332 3.626665-1.279999 4.906663-1.279999 5.33333-2.133332A46.719971 46.719971 0 0 1 127.99992 448.00036h24.959984l1.706666-18.559988 3.839998-45.439972 2.346665-27.093316 21.33332-253.866508a42.66664 42.66664 0 0 1 42.66664-39.039976h573.652975a42.66664 42.66664 0 0 1 42.66664 39.039976l21.33332 253.866508 2.986664 27.093316 3.839998 45.439972 1.706666 18.559988H895.99944a46.719971 46.719971 0 0 1 9.386661 0l5.33333 1.066666 4.906663 1.279999 3.626665 1.279999 5.973329 2.773332 2.773332 1.493332a63.99996 63.99996 0 0 1 8.106662 5.33333A63.99996 63.99996 0 0 1 959.9994 512.00032z" p-id="2797" data-spm-anchor-id="a313x.7781069.0.i15" class="" fill="#393C43"></path><path d="M810.66616 360.107082A1060.69267 1060.69267 0 0 0 511.99968 320.00044a1060.69267 1060.69267 0 0 0-298.66648 40.106642V426.66704a943.146077 943.146077 0 0 1 298.66648-42.66664 943.146077 943.146077 0 0 1 298.66648 42.66664z" fill="#0972E7" p-id="2798" data-spm-anchor-id="a313x.7781069.0.i18" class=""></path></svg>