<?xml version="1.0" standalone="no"?><!DOCTYPE svg PUBLIC "-//W3C//DTD SVG 1.1//EN" "http://www.w3.org/Graphics/SVG/1.1/DTD/svg11.dtd"><svg t="1637736083495" class="icon" viewBox="100 300 824 524" version="1.1" xmlns="http://www.w3.org/2000/svg" p-id="881" xmlns:xlink="http://www.w3.org/1999/xlink" width="64" height="64"><defs><style type="text/css"></style></defs><path d="M866.453333 890.325333h-554.666666c-23.530667 0-42.666667-19.136-42.666667-42.666666v-448c0-23.530667 19.136-42.666667 42.666667-42.666667h554.666666c23.509333 0 42.666667 19.136 42.666667 42.666667v448c0 23.530667-19.157333 42.666667-42.666667 42.666666z m-554.666666-490.666666v448h554.666666v-448h-554.666666z" fill="#393C43" p-id="882" data-spm-anchor-id="a313x.7781069.0.i0" class=""></path><path d="M564.096 742.122667c-76.458667 0-138.666667-62.208-138.666667-138.666667s62.208-138.666667 138.666667-138.666667 138.666667 62.208 138.666667 138.666667a138.624 138.624 0 0 1-138.666667 138.666667z m0-234.666667c-52.949333 0-96 43.072-96 96s43.050667 96 96 96a96 96 0 1 0 0-192z" fill="#0972E7" p-id="883" data-spm-anchor-id="a313x.7781069.0.i2" class=""></path><path d="M247.786667 698.325333H169.813333c-27.584 0-50.026667-22.101333-50.026666-49.237333v-392.106667a49.386667 49.386667 0 0 1 49.322666-49.322666h519.210667a50.176 50.176 0 0 1 50.133333 50.133333v77.866667h-42.666666v-77.866667c0-4.053333-3.413333-7.466667-7.466667-7.466667H169.109333a6.677333 6.677333 0 0 0-6.656 6.677334v392.085333c0 3.562667 3.370667 6.570667 7.36 6.570667h77.973334v42.666666z" fill="#393C43" p-id="884" data-spm-anchor-id="a313x.7781069.0.i1" class=""></path><path d="M701.162667 756.245333a21.290667 21.290667 0 0 1-15.082667-6.250666l-35.264-35.221334a21.333333 21.333333 0 0 1 30.165333-30.186666l35.264 35.221333a21.333333 21.333333 0 0 1-15.082666 36.437333z" fill="#0972E7" p-id="885" data-spm-anchor-id="a313x.7781069.0.i3" class=""></path></svg>
