<?xml version="1.0" standalone="no"?><!DOCTYPE svg PUBLIC "-//W3C//DTD SVG 1.1//EN" "http://www.w3.org/Graphics/SVG/1.1/DTD/svg11.dtd"><svg t="1637736104245" class="icon" viewBox="100 300 824 524" version="1.1" xmlns="http://www.w3.org/2000/svg" p-id="1307" data-spm-anchor-id="a313x.7781069.0.i8" xmlns:xlink="http://www.w3.org/1999/xlink" width="64" height="64"><defs><style type="text/css"></style></defs><path d="M801.152 932.992H334.4a44.010667 44.010667 0 0 1-43.946667-43.946667v-530.773333c0-24.234667 19.733333-43.946667 43.946667-43.946667h466.773333c24.213333 0 43.946667 19.712 43.946667 43.946667v530.773333c0 24.234667-19.733333 43.946667-43.946667 43.946667z m-466.752-576l-1.28 532.053333c0 0.704 0.576 1.28 1.28 1.28h466.773333l1.28-532.053333-468.053333-1.28z" fill="#393C43" p-id="1308" data-spm-anchor-id="a313x.7781069.0.i6" class=""></path><path d="M674.453333 548.992h-192a21.333333 21.333333 0 1 1 0-42.666667h192a21.333333 21.333333 0 1 1 0 42.666667zM674.453333 698.325333h-192a21.333333 21.333333 0 1 1 0-42.666666h192a21.333333 21.333333 0 1 1 0 42.666666z" fill="#0972E7" p-id="1309" data-spm-anchor-id="a313x.7781069.0.i9" class=""></path><path d="M269.12 740.992H210.346667a47.978667 47.978667 0 0 1-47.914667-47.914667V212.992c0-26.453333 21.546667-48 48-48h373.333333c26.453333 0 48 21.546667 48 48v58.666667h-42.666666v-58.666667a5.205333 5.205333 0 0 0-5.333334-5.333333h-373.333333a5.205333 5.205333 0 0 0-5.333333 5.333333v480.085333a5.333333 5.333333 0 0 0 5.248 5.248h58.752v42.666667z" fill="#393C43" p-id="1310" data-spm-anchor-id="a313x.7781069.0.i7" class=""></path></svg>
