<?xml version="1.0" standalone="no"?><!DOCTYPE svg PUBLIC "-//W3C//DTD SVG 1.1//EN" "http://www.w3.org/Graphics/SVG/1.1/DTD/svg11.dtd"><svg t="1637724437563" class="icon" viewBox="0 0 1024 1024" version="1.1" xmlns="http://www.w3.org/2000/svg" p-id="3136" xmlns:xlink="http://www.w3.org/1999/xlink" width="64" height="64"><defs><style type="text/css"></style></defs><path d="M0 234.666667v554.666666a106.666667 106.666667 0 0 0 106.666667 106.666667h810.666666a106.666667 106.666667 0 0 0 106.666667-106.666667V234.666667a106.666667 106.666667 0 0 0-106.666667-106.666667H106.666667a106.666667 106.666667 0 0 0-106.666667 106.666667z m917.333333 597.333333H106.666667a42.666667 42.666667 0 0 1-42.666667-42.666667V234.666667a42.666667 42.666667 0 0 1 42.666667-42.666667h810.666666a42.666667 42.666667 0 0 1 42.666667 42.666667v554.666666a42.666667 42.666667 0 0 1-42.666667 42.666667z" p-id="3137" data-spm-anchor-id="a313x.7781069.0.i22" class="selected" fill="#393C43"></path><path d="M554.666667 405.333333h341.333333v64H554.666667zM640 597.333333h256v64H640z" p-id="3138" data-spm-anchor-id="a313x.7781069.0.i23" class="selected" fill="#393C43"></path><path d="M441.6 537.173333a149.333333 149.333333 0 1 0-200.533333 0A213.333333 213.333333 0 0 0 128 725.333333h64a149.333333 149.333333 0 0 1 298.666667 0h64a213.333333 213.333333 0 0 0-113.066667-188.16zM256 426.666667a85.333333 85.333333 0 1 1 85.333333 85.333333 85.333333 85.333333 0 0 1-85.333333-85.333333z" fill="#0972E7" p-id="3139" data-spm-anchor-id="a313x.7781069.0.i21" class=""></path></svg>