<?xml version="1.0" standalone="no"?><!DOCTYPE svg PUBLIC "-//W3C//DTD SVG 1.1//EN" "http://www.w3.org/Graphics/SVG/1.1/DTD/svg11.dtd"><svg t="1637724364502" class="icon" viewBox="0 0 1024 1024" version="1.1" xmlns="http://www.w3.org/2000/svg" p-id="2356" xmlns:xlink="http://www.w3.org/1999/xlink" width="64" height="64"><defs><style type="text/css"></style></defs><path d="M789.333333 128h-149.333333V106.666667a106.666667 106.666667 0 0 0-106.666667-106.666667H234.666667a106.666667 106.666667 0 0 0-106.666667 106.666667v917.333333h768V234.666667a106.666667 106.666667 0 0 0-106.666667-106.666667zM192 960V106.666667a42.666667 42.666667 0 0 1 42.666667-42.666667h298.666666a42.666667 42.666667 0 0 1 42.666667 42.666667v789.333333h64V192h149.333333a42.666667 42.666667 0 0 1 42.666667 42.666667v725.333333z" fill="#393C43" p-id="2357" data-spm-anchor-id="a313x.7781069.0.i11" class=""></path><path d="M512 576H256v320h64V640h128v256h64V576zM256 192h256v64H256zM256 384h256v64H256z" fill="#0972E7" p-id="2358" data-spm-anchor-id="a313x.7781069.0.i12" class=""></path></svg>