<?xml version="1.0" standalone="no"?><!DOCTYPE svg PUBLIC "-//W3C//DTD SVG 1.1//EN" "http://www.w3.org/Graphics/SVG/1.1/DTD/svg11.dtd"><svg t="1637724399910" class="icon" viewBox="0 0 1024 1024" version="1.1" xmlns="http://www.w3.org/2000/svg" p-id="2600" xmlns:xlink="http://www.w3.org/1999/xlink" width="64" height="64"><defs><style type="text/css"></style></defs><path d="M132.693333 77.226667l167.68 167.466666a2.346667 2.346667 0 0 1 0 1.28l-1.706666 3.626667a370.346667 370.346667 0 0 0 73.386666 402.346667 354.346667 354.346667 0 0 0 253.013334 102.613333 397.653333 397.653333 0 0 0 149.333333-29.44l3.413333-1.493333 167.893334 167.893333-1.706667 1.706667a190.72 190.72 0 0 1-116.266667 51.626666 306.773333 306.773333 0 0 1-35.413333 1.92c-145.706667 0-328.106667-91.946667-476.16-240-161.92-161.92-256-362.666667-237.866667-512a190.72 190.72 0 0 1 52.693334-115.626666l1.706666-1.706667m0-64a64 64 0 0 0-45.226666 18.56l-2.133334 1.706667A254.293333 254.293333 0 0 0 15.786667 187.946667c-18.986667 162.773333 74.453333 382.506667 256 564.266666 166.4 165.12 364.373333 258.56 521.386666 258.56a369.28 369.28 0 0 0 42.666667-2.346666A254.293333 254.293333 0 0 0 990.293333 938.666667l1.706667-1.706667a64 64 0 0 0 0-90.453333l-167.893333-167.893334a64 64 0 0 0-45.013334-18.56 66.773333 66.773333 0 0 0-25.813333 5.12l-2.773333 1.066667a335.786667 335.786667 0 0 1-125.44 24.746667 290.56 290.56 0 0 1-207.786667-83.84 305.493333 305.493333 0 0 1-59.306667-333.013334l1.066667-2.773333a64 64 0 0 0-13.44-70.826667L177.92 32A64 64 0 0 0 132.693333 13.226667z" fill="#393C43" p-id="2601"></path></svg>