<?xml version="1.0" standalone="no"?><!DOCTYPE svg PUBLIC "-//W3C//DTD SVG 1.1//EN" "http://www.w3.org/Graphics/SVG/1.1/DTD/svg11.dtd"><svg t="1638761424774" class="icon" viewBox="0 0 1024 1024" version="1.1" xmlns="http://www.w3.org/2000/svg" p-id="4272" xmlns:xlink="http://www.w3.org/1999/xlink" width="64" height="64"><defs><style type="text/css"></style></defs><path d="M836.266667 42.666667H187.733333C142.933333 42.666667 106.666667 78.933333 106.666667 123.733333v778.666667c0 42.666667 36.266667 78.933333 81.066666 78.933333h648.533334c44.8 0 81.066667-36.266667 81.066666-81.066666V123.733333C917.333333 78.933333 881.066667 42.666667 836.266667 42.666667z m25.6 857.6c0 14.933333-12.8 25.6-25.6 25.6H187.733333c-14.933333 0-25.6-10.666667-25.6-25.6V123.733333c0-14.933333 12.8-25.6 25.6-25.6h648.533334c14.933333 0 25.6 10.666667 25.6 25.6v776.533334z" p-id="4273" data-spm-anchor-id="a313x.7781069.0.i7" class="" fill="#393C43"></path><path d="M699.733333 294.4H324.266667c-14.933333 0-27.733333 12.8-27.733334 27.733333 0 14.933333 12.8 27.733333 27.733334 27.733334h373.333333c14.933333 0 27.733333-12.8 27.733333-27.733334 0-14.933333-10.666667-27.733333-25.6-27.733333zM695.466667 550.4l-115.2-17.066667-51.2-104.533333c-4.266667-8.533333-14.933333-12.8-25.6-8.533333-4.266667 2.133333-6.4 4.266667-8.533334 8.533333L443.733333 533.333333l-115.2 17.066667c-6.4 0-12.8 6.4-14.933333 12.8-2.133333 6.4 0 14.933333 4.266667 19.2l83.2 81.066667-19.2 115.2c-2.133333 6.4 2.133333 14.933333 6.4 19.2 6.4 4.266667 12.8 4.266667 19.2 2.133333l102.4-53.333333 102.4 53.333333c2.133333 2.133333 6.4 2.133333 8.533333 2.133333 4.266667 0 8.533333-2.133333 10.666667-4.266666 6.4-4.266667 8.533333-10.666667 6.4-19.2l-19.2-115.2 83.2-81.066667c4.266667-4.266667 6.4-12.8 4.266666-19.2 2.133333-6.4-4.266667-12.8-10.666666-12.8zM699.733333 170.666667H324.266667c-14.933333 0-25.6 12.8-25.6 27.733333 0 14.933333 12.8 27.733333 27.733333 27.733333h373.333333c14.933333 0 27.733333-12.8 27.733334-27.733333-2.133333-14.933333-12.8-27.733333-27.733334-27.733333z" p-id="4274" data-spm-anchor-id="a313x.7781069.0.i6" class="" fill="#0972E7"></path></svg>