<?xml version="1.0" standalone="no"?><!DOCTYPE svg PUBLIC "-//W3C//DTD SVG 1.1//EN" "http://www.w3.org/Graphics/SVG/1.1/DTD/svg11.dtd"><svg t="1637548145285" class="icon" viewBox="0 0 1024 1024" version="1.1" xmlns="http://www.w3.org/2000/svg" p-id="11655" xmlns:xlink="http://www.w3.org/1999/xlink" width="64" height="64"><defs><style type="text/css"></style></defs><path d="M765.866667 381.866667c-17.066667 17.066667-17.066667 42.666667 0 59.733333l93.866666 93.866667c87.466667 87.466667 96 230.4 12.8 322.133333-46.933333 51.2-113.066667 78.933333-183.466666 74.666667-57.6-2.133333-113.066667-29.866667-155.733334-72.533334l-93.866666-93.866666c-17.066667-17.066667-42.666667-17.066667-59.733334 0-17.066667 17.066667-17.066667 42.666667 0 59.733333l98.133334 98.133333c123.733333 123.733333 322.133333 123.733333 445.866666 0 123.733333-123.733333 123.733333-322.133333 0-445.866666l-98.133333-98.133334c-17.066667-14.933333-42.666667-14.933333-59.733333 2.133334zM258.133333 642.133333c17.066667-17.066667 17.066667-42.666667 0-59.733333l-93.866666-93.866667c-87.466667-87.466667-96-230.4-12.8-322.133333 46.933333-51.2 113.066667-78.933333 183.466666-74.666667 57.6 2.133333 113.066667 29.866667 155.733334 72.533334l93.866666 93.866666c17.066667 17.066667 42.666667 17.066667 59.733334 0 17.066667-17.066667 17.066667-42.666667 0-59.733333l-98.133334-98.133333c-123.733333-123.733333-322.133333-123.733333-445.866666 0-123.733333 123.733333-123.733333 322.133333 0 445.866666l98.133333 98.133334c17.066667 14.933333 42.666667 14.933333 59.733333-2.133334zM196.266667 753.066667L753.066667 196.266667c21.333333-21.333333 55.466667-21.333333 74.666666 0 21.333333 21.333333 21.333333 55.466667 0 74.666666L270.933333 827.733333c-21.333333 21.333333-55.466667 21.333333-74.666666 0-21.333333-19.2-21.333333-53.333333 0-74.666666z" p-id="11656" fill="#ffffff"></path></svg>