<?xml version="1.0" standalone="no"?><!DOCTYPE svg PUBLIC "-//W3C//DTD SVG 1.1//EN" "http://www.w3.org/Graphics/SVG/1.1/DTD/svg11.dtd"><svg t="1638952426437" class="icon" viewBox="200 200 600 600" version="1.1" xmlns="http://www.w3.org/2000/svg" p-id="2684" xmlns:xlink="http://www.w3.org/1999/xlink" width="64" height="64"><defs><style type="text/css"></style></defs><path d="M572.16 512l183.467-183.04a42.667 42.667 0 1 0-60.587-60.587L512 451.84 328.96 268.373a42.667 42.667 0 0 0-60.587 60.587L451.84 512 268.373 695.04a42.667 42.667 0 0 0 0 60.587 42.667 42.667 0 0 0 60.587 0L512 572.16l183.04 183.467a42.667 42.667 0 0 0 60.587 0 42.667 42.667 0 0 0 0-60.587z" p-id="2685" fill="#393C43"></path></svg>
