<?xml version="1.0" standalone="no"?><!DOCTYPE svg PUBLIC "-//W3C//DTD SVG 1.1//EN" "http://www.w3.org/Graphics/SVG/1.1/DTD/svg11.dtd"><svg t="1637654391354" class="icon" viewBox="0 0 1024 1024" version="1.1" xmlns="http://www.w3.org/2000/svg" p-id="1007" xmlns:xlink="http://www.w3.org/1999/xlink" width="64" height="64"><defs><style type="text/css"></style></defs><path d="M898.275556 387.982222l-178.062223-145.635555-158.151111-128c-29.582222-23.893333-71.111111-23.893333-100.693333 0L303.786667 242.915556 125.724444 387.982222c-18.773333 15.36-29.582222 38.115556-29.582222 62.577778V847.644444c0 44.373333 35.84 80.782222 80.213334 80.782223h671.857777c44.373333 0 80.213333-35.84 80.213334-80.782223V450.56c-0.568889-23.893333-11.377778-47.217778-30.151111-62.577778z m-354.417778 348.16c0 17.635556-14.222222 31.857778-31.857778 31.857778-17.635556 0-31.857778-14.222222-31.857778-31.857778v-256c0-17.635556 14.222222-31.857778 31.857778-31.857778 17.635556 0 31.857778 14.222222 31.857778 31.857778v256z" p-id="1008" fill="#0972E7"></path></svg>