<?xml version="1.0" standalone="no"?><!DOCTYPE svg PUBLIC "-//W3C//DTD SVG 1.1//EN" "http://www.w3.org/Graphics/SVG/1.1/DTD/svg11.dtd"><svg t="1637654461519" class="icon" viewBox="0 0 1024 1024" version="1.1" xmlns="http://www.w3.org/2000/svg" p-id="1536" xmlns:xlink="http://www.w3.org/1999/xlink" width="64" height="64"><defs><style type="text/css"></style></defs><path d="M891.448889 277.048889h-244.622222c-15.928889 0-30.72-7.964444-39.253334-21.617778l-35.84-57.457778c-9.102222-13.653333-23.893333-21.617778-39.253333-21.617777H129.706667c-35.84 0-66.56 30.72-66.56 67.697777v537.6c0 35.84 29.582222 66.56 66.56 66.56h761.742222c36.977778 0 66.56-30.72 67.697778-66.56V344.746667c0-37.546667-30.72-67.697778-67.697778-67.697778z m-744.675556 130.844444c0-16.497778 13.653333-30.151111 30.151111-30.151111h139.946667c16.497778 0 30.151111 13.653333 30.151111 30.151111S333.368889 438.044444 316.871111 438.044444H176.924444c-16.497778 0-30.151111-13.653333-30.151111-30.151111z m0 146.773334c0-16.497778 13.653333-30.151111 30.151111-30.151111h225.848889c16.497778 0 30.151111 13.653333 30.151111 30.151111s-13.653333 30.151111-30.151111 30.151111H176.924444c-16.497778-0.568889-30.151111-13.653333-30.151111-30.151111z m324.266667 146.204444c0 16.497778-13.653333 30.151111-30.151111 30.151111H176.924444c-16.497778 0-30.151111-13.653333-30.151111-30.151111s13.653333-30.151111 30.151111-30.151111h263.964445c16.497778 0 30.151111 13.653333 30.151111 30.151111zM711.68 369.777778c50.062222 0 91.022222 40.96 91.022222 91.022222s-40.96 91.022222-91.022222 91.022222-91.022222-40.96-91.022222-91.022222 40.96-91.022222 91.022222-91.022222z m157.013333 299.804444V701.44c0 21.617778-22.755556 38.684444-48.355555 38.684444h-216.746667c-27.306667 0-48.355556-17.066667-48.355555-38.684444v-34.133333c0-39.822222 69.973333-72.817778 157.013333-72.817778s157.013333 32.995556 157.013333 72.817778l-0.568889 2.275555z" p-id="1537" fill="#0972E7"></path></svg>