<?xml version="1.0" standalone="no"?><!DOCTYPE svg PUBLIC "-//W3C//DTD SVG 1.1//EN" "http://www.w3.org/Graphics/SVG/1.1/DTD/svg11.dtd"><svg t="1637654429009" class="icon" viewBox="0 0 1024 1024" version="1.1" xmlns="http://www.w3.org/2000/svg" p-id="1268" xmlns:xlink="http://www.w3.org/1999/xlink" width="64" height="64"><defs><style type="text/css"></style></defs><path d="M848.213333 64.284444H175.786667c-44.373333 0-80.213333 35.84-80.213334 80.213334v736.142222c0 44.373333 35.84 80.213333 80.213334 80.213333h321.991111c44.373333 0 80.213333-35.84 80.213333-80.213333V620.088889c0-22.186667 17.635556-39.822222 39.822222-39.822222H847.644444c44.373333 0 80.213333-35.84 80.213334-80.213334V143.928889c0-44.373333-35.84-79.644444-79.644445-79.644445zM466.488889 716.231111c0 17.635556-14.222222 31.857778-31.857778 31.857778H282.168889c-17.635556 0-31.857778-14.222222-31.857778-31.857778 0-17.635556 14.222222-31.857778 31.857778-31.857778h152.462222c17.066667-0.568889 31.857778 14.222222 31.857778 31.857778z m83.626667-145.635555c0 17.635556-14.222222 31.857778-31.857778 31.857777H282.168889c-17.635556 0-31.857778-14.222222-31.857778-31.857777 0-17.635556 14.222222-31.857778 31.857778-31.857778h236.088889c17.066667 0 31.857778 14.222222 31.857778 31.857778z m112.071111-145.066667c0 17.635556-14.222222 31.857778-31.857778 31.857778H282.168889c-17.635556 0-31.857778-14.222222-31.857778-31.857778 0-17.635556 14.222222-31.857778 31.857778-31.857778h348.16c17.066667-0.568889 31.857778 14.222222 31.857778 31.857778z m99.555555-145.635556c0 17.635556-14.222222 31.857778-31.857778 31.857778H282.168889c-17.635556 0-31.857778-14.222222-31.857778-31.857778 0-17.635556 14.222222-31.857778 31.857778-31.857777h448.284444c17.066667 0 31.288889 14.222222 31.288889 31.857777z" p-id="1269" fill="#393c43"></path><path d="M898.275556 731.022222H625.777778c-16.497778 0-30.151111 13.653333-30.151111 30.151111v42.097778c0 16.497778 13.653333 30.151111 30.151111 30.151111h271.928889c16.497778 0 30.151111-13.653333 30.151111-30.151111v-42.097778c0-16.497778-13.084444-30.151111-29.582222-30.151111zM898.275556 604.16H625.777778c-16.497778 0-30.151111 13.653333-30.151111 30.151111v42.097778c0 16.497778 13.653333 30.151111 30.151111 30.151111h271.928889c16.497778 0 30.151111-13.653333 30.151111-30.151111v-42.097778c0-17.066667-13.084444-30.151111-29.582222-30.151111z m-240.071112 71.68c-11.377778 0-21.048889-9.102222-21.048888-21.048889s9.671111-21.048889 21.048888-21.048889 21.048889 9.102222 21.048889 21.048889-9.671111 21.048889-21.048889 21.048889zM898.275556 857.884444H625.777778c-16.497778 0-30.151111 13.653333-30.151111 30.151112v42.097777c0 16.497778 13.653333 30.151111 30.151111 30.151111h271.928889c16.497778 0 30.151111-13.653333 30.151111-30.151111v-42.097777c0-16.497778-13.084444-30.151111-29.582222-30.151112z" p-id="1270" fill="#393c43"></path></svg>
