<?xml version="1.0" standalone="no"?><!DOCTYPE svg PUBLIC "-//W3C//DTD SVG 1.1//EN" "http://www.w3.org/Graphics/SVG/1.1/DTD/svg11.dtd"><svg t="1640228365840" class="icon" viewBox="0 0 1024 1024" version="1.1" xmlns="http://www.w3.org/2000/svg" p-id="8588" xmlns:xlink="http://www.w3.org/1999/xlink" width="64" height="64"><defs><style type="text/css"></style></defs><path d="M977.616 315.292c-25.453-60.179-61.888-114.22-108.289-160.621-46.402-46.402-100.442-82.834-160.62-108.287C646.391 20.026 580.209 6.662 511.999 6.662S377.607 20.026 315.292 46.384c-60.178 25.453-114.219 61.886-160.62 108.288-46.402 46.401-82.836 100.441-108.289 160.62C20.026 377.608 6.662 443.789 6.662 512c0 68.209 13.364 134.39 39.721 196.705 25.454 60.178 61.887 114.219 108.289 160.619 46.401 46.402 100.442 82.837 160.62 108.29 62.316 26.358 128.498 39.724 196.708 39.724s134.392-13.364 196.708-39.724c60.178-25.453 114.218-61.888 160.62-108.289s82.836-100.442 108.289-160.621c26.356-62.314 39.722-128.495 39.722-196.704-0.001-68.211-13.365-134.392-39.723-196.708zM511.999 970.441c-252.785 0-458.44-205.656-458.44-458.44 0-252.786 205.656-458.441 458.44-458.441 252.786 0 458.442 205.656 458.442 458.441 0 252.783-205.656 458.44-458.442 458.44z" fill="#316bfc" p-id="8589"></path><path d="M815.083 254.677a21.003 21.003 0 0 0-18.496 5.833l-55.932 55.94-26.81-6.393-6.605-26.461 56.221-56.211a21 21 0 0 0-4.789-33.284c-2.543-1.387-25.786-13.555-58.568-13.555-35.513 0-68.867 14.583-96.461 42.172-34.073 34.073-46.902 81.463-38.482 125.538L349.083 564.284c-0.225 0.226-0.435 0.466-0.658 0.694a140.88 140.88 0 0 0-26.638-2.533c-37.406 0-72.609 14.603-99.123 41.117-28.158 28.152-42.173 63.677-40.53 102.732 1.203 28.608 10.338 48.951 11.375 51.177a21.002 21.002 0 0 0 33.881 5.976l55.941-55.933 26.799 6.392 6.599 26.462-56.213 56.212a21 21 0 0 0 4.786 33.281c2.548 1.391 25.838 13.59 58.666 13.593h0.01c35.495 0 68.835-14.574 96.412-42.146 33.931-33.938 46.794-81.077 38.59-124.991 0.316-0.307 0.648-0.6 0.959-0.911l216.266-216.237a140.863 140.863 0 0 0 26.002 2.417c37.409 0 72.625-14.611 99.163-41.144 28.149-28.155 42.152-63.69 40.494-102.765-1.215-28.617-10.356-48.969-11.395-51.195a21 21 0 0 0-15.386-11.805zM390.69 771.61c-19.807 19.804-42.251 29.845-66.712 29.845h-0.007c-2.955 0-5.803-0.149-8.523-0.408l39.382-39.381a21 21 0 0 0 5.527-19.931l-12.563-50.375a21 21 0 0 0-15.504-15.346l-50.634-12.076a20.994 20.994 0 0 0-19.72 5.576l-37.767 37.762c-1.384-21.012 3.152-48.978 28.192-74.014 18.583-18.582 43.238-28.816 69.426-28.816a97.899 97.899 0 0 1 28.167 4.111c0.245 0.078 0.49 0.158 0.737 0.227 14.987 4.628 28.726 12.866 40.142 24.28 38.149 38.158 38.084 100.311-0.143 138.546z m52.378-138.728a139.368 139.368 0 0 0-22.536-29.517 140.595 140.595 0 0 0-28.893-22.237l189.59-189.545a139.44 139.44 0 0 0 22.299 29.096 140.438 140.438 0 0 0 29.293 22.475L443.068 632.882z m328.604-242.139c-18.604 18.599-43.272 28.842-69.465 28.842a97.904 97.904 0 0 1-26.094-3.517 20.595 20.595 0 0 0-1.15-0.333c-15.606-4.521-29.916-12.931-41.734-24.752-38.167-38.177-38.116-100.338 0.113-138.567 19.823-19.821 42.286-29.871 66.763-29.871 2.91 0 5.717 0.145 8.399 0.396L669.14 262.3a20.999 20.999 0 0 0-5.527 19.937l12.574 50.375a21 21 0 0 0 15.504 15.341l50.644 12.076a20.999 20.999 0 0 0 19.722-5.579l37.771-37.776c1.399 21.027-3.115 49.024-28.156 74.069z" fill="#316bfc" p-id="8590"></path></svg>