<?xml version="1.0" standalone="no"?><!DOCTYPE svg PUBLIC "-//W3C//DTD SVG 1.1//EN" "http://www.w3.org/Graphics/SVG/1.1/DTD/svg11.dtd"><svg t="1639985759667" class="icon" viewBox="0 0 1024 1024" version="1.1" xmlns="http://www.w3.org/2000/svg" p-id="8124" xmlns:xlink="http://www.w3.org/1999/xlink" width="64" height="64"><defs><style type="text/css"></style></defs><path d="M326.763789 660.210526a30.019368 30.019368 0 0 0-30.342736 30.342737c0 16.922947 13.312 30.288842 30.342736 30.288842a30.019368 30.019368 0 0 0 30.288843-30.342737 30.019368 30.019368 0 0 0-30.342737-30.288842z m0-363.789473a30.019368 30.019368 0 0 0-30.342736 30.342736c0 16.976842 13.312 30.288842 30.342736 30.288843a30.019368 30.019368 0 0 0 30.288843-30.342737 30.019368 30.019368 0 0 0-30.342737-30.288842z m0 181.894736a30.019368 30.019368 0 0 0-30.342736 30.342737c0 16.922947 13.312 30.288842 30.342736 30.288842a30.019368 30.019368 0 0 0 30.288843-30.342736 30.019368 30.019368 0 0 0-30.342737-30.288843z m454.709895-363.789473H235.789474a121.640421 121.640421 0 0 0-121.263158 121.263158V781.473684a121.640421 121.640421 0 0 0 121.263158 121.263158H781.473684a121.640421 121.640421 0 0 0 121.263158-121.263158V235.789474a121.640421 121.640421 0 0 0-121.263158-121.263158zM842.105263 781.473684c0 33.360842-27.270737 60.631579-60.631579 60.631579H235.789474A60.793263 60.793263 0 0 1 175.157895 781.473684V235.789474c0-33.360842 27.270737-60.631579 60.631579-60.631579H781.473684c33.360842 0 60.631579 27.270737 60.631579 60.631579V781.473684z m-151.605895-485.052631h-242.526315a30.019368 30.019368 0 0 0-30.288842 30.342736c0 16.976842 13.312 30.288842 30.342736 30.288843h242.526316a30.019368 30.019368 0 0 0 30.288842-30.342737 30.019368 30.019368 0 0 0-30.342737-30.288842z m0 181.894736h-242.526315a30.019368 30.019368 0 0 0-30.288842 30.342737c0 16.922947 13.312 30.288842 30.342736 30.288842h242.526316a30.019368 30.019368 0 0 0 30.288842-30.342736 30.019368 30.019368 0 0 0-30.342737-30.288843z m0 181.894737h-242.526315a30.019368 30.019368 0 0 0-30.288842 30.342737c0 16.922947 13.312 30.288842 30.342736 30.288842h242.526316a30.019368 30.019368 0 0 0 30.288842-30.342737 30.019368 30.019368 0 0 0-30.342737-30.288842z" p-id="8125" fill="#393C43"></path></svg>